<?xml version="1.0"?>
<svg xmlns="http://www.w3.org/2000/svg" height="512px" viewBox="0 0 512 512" width="512px" class=""><g><path d="m312 276h80a24 24 0 0 1 24 24 0 0 0 0 1 0 0h-128a0 0 0 0 1 0 0 24 24 0 0 1 24-24z" fill="#6478b9" data-original="#6478B9" class="active-path" style="fill:#C24E50" data-old_color="#6478b9"/><path d="m376 276h16a24 24 0 0 1 24 24 0 0 0 0 1 0 0h-64a0 0 0 0 1 0 0 24 24 0 0 1 24-24z" fill="#4b55a5" data-original="#4B55A5" class="" style="fill:#AD4343" data-old_color="#4b55a5"/><path d="m40 76h432a24 24 0 0 1 24 24v24a0 0 0 0 1 0 0h-480a0 0 0 0 1 0 0v-24a24 24 0 0 1 24-24z" fill="#a5c3dc" data-original="#A5C3DC" class="" style="fill:#DC5555" data-old_color="#a5c3dc"/><path d="m40 300h432a24 24 0 0 1 24 24v24a0 0 0 0 1 0 0h-480a0 0 0 0 1 0 0v-24a24 24 0 0 1 24-24z" fill="#a5c3dc" data-original="#A5C3DC" class="" style="fill:#DC5555" data-old_color="#a5c3dc"/><path d="m40 76h320a24 24 0 0 1 24 24v24a0 0 0 0 1 0 0h-368a0 0 0 0 1 0 0v-24a24 24 0 0 1 24-24z" fill="#4b55a5" data-original="#4B55A5" class="" style="fill:#AD4343" data-old_color="#4b55a5"/><path d="m40 300h320a24 24 0 0 1 24 24v24a0 0 0 0 1 0 0h-368a0 0 0 0 1 0 0v-24a24 24 0 0 1 24-24z" fill="#4b55a5" data-original="#4B55A5" class="" style="fill:#AD4343" data-old_color="#4b55a5"/><path d="m40 76h128a24 24 0 0 1 24 24v24a0 0 0 0 1 0 0h-176a0 0 0 0 1 0 0v-24a24 24 0 0 1 24-24z" fill="#6478b9" data-original="#6478B9" class="active-path" style="fill:#C24E50" data-old_color="#6478b9"/><path d="m16 124h480v48h-480z" fill="#f5871e" data-original="#F5871E" class="" style="fill:#863333" data-old_color="#f5871e"/><path d="m16 124h176v48h-176z" fill="#fabe19" data-original="#FABE19" class="" style="fill:#E75859" data-old_color="#fabe19"/><path d="m16 348h480v48h-480z" fill="#f5871e" data-original="#F5871E" class="" style="fill:#863333" data-old_color="#f5871e"/><path d="m16 348h176v48h-176z" fill="#fabe19" data-original="#FABE19" class="" style="fill:#E75859" data-old_color="#fabe19"/><path d="m40 300h128a24 24 0 0 1 24 24v24a0 0 0 0 1 0 0h-176a0 0 0 0 1 0 0v-24a24 24 0 0 1 24-24z" fill="#6478b9" data-original="#6478B9" class="active-path" style="fill:#C24E50" data-old_color="#6478b9"/><path d="m181.333 172h10.667v288h-10.667z" fill="#fabe19" data-original="#FABE19" class="" style="fill:#E75859" data-old_color="#fabe19"/><path d="m16 172h10.667v288h-10.667z" fill="#fabe19" data-original="#FABE19" class="" style="fill:#E75859" data-old_color="#fabe19"/><path d="m26.667 172h10.667v176h-10.667z" fill="#f5871e" data-original="#F5871E" class="" style="fill:#863333" data-old_color="#f5871e"/><path d="m485.333 172h10.667v288h-10.667z" fill="#f5871e" transform="matrix(-1 0 0 -1 981.333 632)" data-original="#F5871E" class="" style="fill:#863333" data-old_color="#f5871e"/><path d="m474.667 172h10.667v176h-10.667z" fill="#fabe19" transform="matrix(-1 0 0 -1 960 520)" data-original="#FABE19" class="" style="fill:#E75859" data-old_color="#fabe19"/><path d="m266.667 172h10.667v176h-10.667z" fill="#f5871e" transform="matrix(-1 0 0 -1 544 520)" data-original="#F5871E" class="" style="fill:#863333" data-old_color="#f5871e"/><path d="m256 172h10.667v176h-10.667z" fill="#fabe19" transform="matrix(-1 0 0 -1 522.667 520)" data-original="#FABE19" class="" style="fill:#E75859" data-old_color="#fabe19"/><path d="m26.667 396h10.667v64h-10.667z" fill="#f5871e" data-original="#F5871E" class="" style="fill:#863333" data-old_color="#f5871e"/><path d="m474.667 396h10.667v64h-10.667z" fill="#fabe19" data-original="#FABE19" class="" style="fill:#E75859" data-old_color="#fabe19"/><g fill="#f5871e"><path d="m192 172h10.667v288h-10.667z" data-original="#F5871E" class="" style="fill:#863333" data-old_color="#F5871E"/><path d="m202.667 220h64v16h-64z" data-original="#F5871E" class="" style="fill:#863333" data-old_color="#F5871E"/><path d="m202.667 284h64v16h-64z" data-original="#F5871E" class="" style="fill:#863333" data-old_color="#F5871E"/></g><path d="m312 52h80a24 24 0 0 1 24 24 0 0 0 0 1 0 0h-128a0 0 0 0 1 0 0 24 24 0 0 1 24-24z" fill="#6478b9" data-original="#6478B9" class="active-path" style="fill:#C24E50" data-old_color="#6478b9"/><path d="m376 52h16a24 24 0 0 1 24 24 0 0 0 0 1 0 0h-64a0 0 0 0 1 0 0 24 24 0 0 1 24-24z" fill="#4b55a5" data-original="#4B55A5" class="" style="fill:#AD4343" data-old_color="#4b55a5"/></g> </svg>
